<?xml version="1.0"?>
<svg width="512" height="512" xmlns="http://www.w3.org/2000/svg" xmlns:svg="http://www.w3.org/2000/svg" preserveAspectRatio="xMidYMid meet" version="1.0">
 <g class="layer">
  <title>Layer 1</title>
  <g fill="#000000" id="svg_1" transform="matrix(0.1 0 0 -0.1 0 0)">
   <path d="m683,-815c-170,-46 -304,-181 -348,-350c-22,-88 -23,-2701 0,-2788c47,-179 198,-323 374,-357c73,-14 3627,-14 3702,0c182,34 344,196 379,379c14,74 14,2668 0,2742c-25,129 -125,267 -238,327c-124,66 9,62 -1997,61c-1533,0 -1828,-3 -1872,-14zm702,-794c27,-13 177,-156 452,-432c445,-448 435,-435 418,-526c-6,-33 -59,-90 -423,-456c-229,-230 -429,-425 -444,-433c-15,-8 -45,-14 -68,-14c-103,0 -175,92 -155,198c6,32 53,83 358,390l351,352l-351,353c-307,308 -352,357 -358,390c-15,78 19,146 89,178c52,23 81,23 131,0zm2535,-1583c56,-39 75,-73 75,-136c0,-70 -28,-115 -89,-143c-39,-18 -79,-19 -706,-19c-627,0 -667,1 -706,19c-61,28 -89,73 -89,143c0,63 19,97 75,136l33,22l687,0l687,0l33,-22z" fill="#7c66e3" id="svg_2"/>
  </g>
 </g>
</svg>